HIERARCHY
ROOT hips_dup
{
	OFFSET 38.994835 108.019676 230.402130
	CHANNELS 6 Xposition Yposition Zposition Zrotation Yrotation Xrotation
	JOINT l_hip_dup
	{
		OFFSET 0.100000 0.000000 0.000000
		CHANNELS 3 Zrotation Yrotation Xrotation
		JOINT l_thigh_dup
		{
			OFFSET 7.071068 -7.071068 0.000000
			CHANNELS 3 Zrotation Yrotation Xrotation
			JOINT l_knee_dup
			{
				OFFSET 0.000020 -50.000011 0.000000
				CHANNELS 3 Zrotation Yrotation Xrotation
				JOINT l_foot_dup
				{
					OFFSET 0.000022 -46.844974 0.000000
					CHANNELS 3 Zrotation Yrotation Xrotation
					JOINT l_toes_dup
					{
						OFFSET 0.000004 -3.481765 12.994138
						CHANNELS 3 Zrotation Yrotation Xrotation
						End l_toes_End_dup
						{
							OFFSET 0.000000 0.000003 9.999998
						}
					}
				}
			}
		}
	}
	JOINT r_hip_dup
	{
		OFFSET 0.100000 0.000000 0.000000
		CHANNELS 3 Zrotation Yrotation Xrotation
		JOINT r_thigh_dup
		{
			OFFSET -7.071067 -7.071068 0.000000
			CHANNELS 3 Zrotation Yrotation Xrotation
			JOINT r_knee_dup
			{
				OFFSET 0.000026 -50.000000 -0.000000
				CHANNELS 3 Zrotation Yrotation Xrotation
				JOINT r_foot_dup
				{
					OFFSET 0.000021 -46.844951 0.000000
					CHANNELS 3 Zrotation Yrotation Xrotation
					JOINT r_toes_dup
					{
						OFFSET 0.000006 -3.481758 12.994106
						CHANNELS 3 Zrotation Yrotation Xrotation
						End r_toes_End_dup
						{
							OFFSET 0.000000 -0.000003 9.999996
						}
					}
				}
			}
		}
	}
	JOINT spine1_dup
	{
		OFFSET 0.000000 0.099998 0.000000
		CHANNELS 3 Zrotation Yrotation Xrotation
		JOINT spine2_dup
		{
			OFFSET 0.000001 10.421844 0.000000
			CHANNELS 3 Zrotation Yrotation Xrotation
			JOINT spine3_dup
			{
				OFFSET 0.000001 10.421852 0.000000
				CHANNELS 3 Zrotation Yrotation Xrotation
				JOINT spine4_dup
				{
					OFFSET 0.000001 10.421829 -0.000000
					CHANNELS 3 Zrotation Yrotation Xrotation
					JOINT neck1_dup
					{
						OFFSET 0.000001 10.421814 0.000000
						CHANNELS 3 Zrotation Yrotation Xrotation
						JOINT neck2_dup
						{
							OFFSET 0.000000 5.749954 -0.000000
							CHANNELS 3 Zrotation Yrotation Xrotation
							JOINT head_dup
							{
								OFFSET 0.000000 5.749924 0.000000
								CHANNELS 3 Zrotation Yrotation Xrotation
								End head_End_dup
								{
									OFFSET 0.000000 11.499686 -0.000000
								}
							}
						}
					}
					JOINT l_clavicle_dup
					{
						OFFSET 0.000000 10.421844 0.000000
						CHANNELS 3 Zrotation Yrotation Xrotation
						JOINT l_shoulder_dup
						{
							OFFSET 17.847798 3.850716 -0.981963
							CHANNELS 3 Zrotation Yrotation Xrotation
							JOINT l_elbow_dup
							{
								OFFSET 30.849020 0.000016 -0.000001
								CHANNELS 3 Zrotation Yrotation Xrotation
								JOINT l_hand_dup
								{
									OFFSET 30.320339 0.000015 -0.000002
									CHANNELS 3 Zrotation Yrotation Xrotation
									End l_hand_End_dup
									{
										OFFSET 14.999237 0.000010 0.000000
									}
								}
							}
						}
					}
					JOINT r_clavicle_dup
					{
						OFFSET 0.000000 10.421844 0.000000
						CHANNELS 3 Zrotation Yrotation Xrotation
						JOINT r_shoulder_dup
						{
							OFFSET -18.112579 2.260853 -1.076626
							CHANNELS 3 Zrotation Yrotation Xrotation
							JOINT r_elbow_dup
							{
								OFFSET -30.849059 0.000005 0.000001
								CHANNELS 3 Zrotation Yrotation Xrotation
								JOINT r_hand_dup
								{
									OFFSET -30.627892 0.000005 0.000004
									CHANNELS 3 Zrotation Yrotation Xrotation
									End r_hand_End_dup
									{
										OFFSET -14.999262 0.000003 0.000000
									}
								}
							}
						}
					}
				}
			}
		}
	}
}
MOTION
Frames: 9
Frame Time: 0.033333
0.0000 0.0000 0.0000 0.0000 0.0000 0.0000 0.0000 0.0000 0.0000 2.99664 -1.50326 -29.5077 -1.19678 14.5412 65.4243 26.3109 -0.590223 -14.4784 0.0000 0.0000 0.0000 0.0000 0.0000 0.0000 9.3065 20.9395 -13.2991 -7.15631 1.98251 25.4564 6.63336 -11.8451 -8.58285 0.0000 0.0000 0.0000 0.0000 0.0000 0.0000 0.0000 0.0000 0.0000 0.0000 0.0000 0.0000 0.0000 0.0000 0.0000 0.0000 0.0000 0.0000 0.0000 0.0000 0.0000 0.0000 0.0000 0.0000 0.0000 0.0000 0.0000 -37.0423 23.5942 50.2239 -21.0532 -62.1595 -0.549437 35.7962 -1.32195 4.39384 0.0000 0.0000 0.0000 63.3407 -2.92892 34.1629 -23.0092 51.3219 -82.4066 46.5876 -24.3902 -14.0046 
0.0000 0.0000 0.0000 0.0000 0.0000 0.0000 0.0000 0.0000 0.0000 3.44188 -1.90824 -30.9284 -1.59 15.3331 62.6641 24.4521 0.0436127 -14.0201 0.0000 0.0000 0.0000 0.0000 0.0000 0.0000 9.17483 20.5772 -11.6599 -6.49358 1.83697 23.8933 6.61382 -11.759 -8.69914 0.0000 0.0000 0.0000 0.0000 0.0000 0.0000 0.0000 0.0000 0.0000 0.0000 0.0000 0.0000 0.0000 0.0000 0.0000 0.0000 0.0000 0.0000 0.0000 0.0000 0.0000 0.0000 0.0000 0.0000 0.0000 0.0000 0.0000 -36.4096 25.4636 49.888 -22.7786 -61.7255 0.993218 36.2192 -1.28416 4.94992 0.0000 0.0000 0.0000 63.3688 -0.688629 34.5669 -24.322 51.1443 -83.5787 47.315 -22.8334 -12.8843 
0.0000 0.0000 0.0000 0.0000 0.0000 0.0000 0.0000 0.0000 0.0000 3.93684 -2.38665 -32.1148 -2.07996 16.1133 59.4163 22.3324 0.614092 -13.5082 0.0000 0.0000 0.0000 0.0000 0.0000 0.0000 9.09077 20.1065 -10.0469 -5.82885 1.89247 22.343 6.56713 -11.7685 -8.83827 0.0000 0.0000 0.0000 0.0000 0.0000 0.0000 0.0000 0.0000 0.0000 0.0000 0.0000 0.0000 0.0000 0.0000 0.0000 0.0000 0.0000 0.0000 0.0000 0.0000 0.0000 0.0000 0.0000 0.0000 0.0000 0.0000 0.0000 -36.0272 27.3743 49.7118 -23.251 -61.5512 1.12297 36.4065 -1.22752 5.64277 0.0000 0.0000 0.0000 63.3844 1.35671 34.705 -26.0305 50.936 -85.1167 48.0445 -21.4139 -12.0032 
0.0000 0.0000 0.0000 0.0000 0.0000 0.0000 0.0000 0.0000 0.0000 4.39796 -2.85144 -33.0327 -2.72841 16.6708 55.6942 19.8154 1.06474 -12.9149 0.0000 0.0000 0.0000 0.0000 0.0000 0.0000 9.04095 19.6476 -8.49445 -5.2185 2.10786 20.8564 6.55413 -11.9362 -8.95531 0.0000 0.0000 0.0000 0.0000 0.0000 0.0000 0.0000 0.0000 0.0000 0.0000 0.0000 0.0000 0.0000 0.0000 0.0000 0.0000 0.0000 0.0000 0.0000 0.0000 0.0000 0.0000 0.0000 0.0000 0.0000 0.0000 0.0000 -35.2974 29.3321 49.7513 -23.8193 -61.5329 1.13858 36.8244 -1.20151 6.37916 0.0000 0.0000 0.0000 63.3852 3.23481 34.5999 -28.0263 50.673 -86.9382 49.0095 -20.2753 -11.3249 
0.0000 0.0000 0.0000 0.0000 0.0000 0.0000 0.0000 0.0000 0.0000 4.73979 -3.2248 -33.6771 -3.58481 16.5794 51.5124 16.7241 1.65221 -12.1136 0.0000 0.0000 0.0000 0.0000 0.0000 0.0000 8.92157 19.222 -7.09537 -4.65179 2.15801 19.5732 6.58241 -11.9438 -9.07835 0.0000 0.0000 0.0000 0.0000 0.0000 0.0000 0.0000 0.0000 0.0000 0.0000 0.0000 0.0000 0.0000 0.0000 0.0000 0.0000 0.0000 0.0000 0.0000 0.0000 0.0000 0.0000 0.0000 0.0000 0.0000 0.0000 0.0000 -34.1292 31.3349 49.909 -24.9966 -61.6087 1.82697 37.5771 -1.24082 7.05344 0.0000 0.0000 0.0000 63.434 5.01235 34.4751 -29.6317 50.2844 -88.5794 49.9785 -19.3031 -10.6486 
0.0000 0.0000 0.0000 0.0000 0.0000 0.0000 0.0000 0.0000 0.0000 4.97586 -3.56943 -34.0728 -4.4094 15.87 47.0095 13.0521 2.42932 -11.2053 0.0000 0.0000 0.0000 0.0000 0.0000 0.0000 8.69999 18.7302 -5.806 -4.04939 2.17619 18.4359 6.66663 -11.8714 -9.19496 0.0000 0.0000 0.0000 0.0000 0.0000 0.0000 0.0000 0.0000 0.0000 0.0000 0.0000 0.0000 0.0000 0.0000 0.0000 0.0000 0.0000 0.0000 0.0000 0.0000 0.0000 0.0000 0.0000 0.0000 0.0000 0.0000 0.0000 -33.046 33.2531 50.0235 -26.042 -61.7206 2.80202 38.3828 -1.28506 7.62428 0.0000 0.0000 0.0000 63.6143 6.67991 34.4111 -30.7096 49.6958 -89.9298 50.6562 -18.3328 -9.85447 
0.0000 0.0000 0.0000 0.0000 0.0000 0.0000 0.0000 0.0000 0.0000 5.09511 -3.89418 -34.1352 -5.11623 14.6654 42.142 9.11036 3.08109 -10.2124 0.0000 0.0000 0.0000 0.0000 0.0000 0.0000 8.43824 18.0295 -4.48702 -3.37118 2.41813 17.2569 6.78776 -11.8419 -9.31881 0.0000 0.0000 0.0000 0.0000 0.0000 0.0000 0.0000 0.0000 0.0000 0.0000 0.0000 0.0000 0.0000 0.0000 0.0000 0.0000 0.0000 0.0000 0.0000 0.0000 0.0000 0.0000 0.0000 0.0000 0.0000 0.0000 0.0000 -32.1266 35.1009 50.1315 -26.8691 -61.8882 3.74785 38.9742 -1.30269 8.11028 0.0000 0.0000 0.0000 63.9045 8.24961 34.434 -31.447 48.9015 -91.0335 51.0324 -17.2638 -9.06094 
0.0000 0.0000 0.0000 0.0000 0.0000 0.0000 0.0000 0.0000 0.0000 5.00794 -4.12006 -33.8092 -5.55369 13.1189 36.9161 5.13759 3.50262 -9.20444 0.0000 0.0000 0.0000 0.0000 0.0000 0.0000 8.21225 17.2208 -3.16298 -2.7303 2.82712 16.0966 6.89742 -11.8534 -9.46181 0.0000 0.0000 0.0000 0.0000 0.0000 0.0000 0.0000 0.0000 0.0000 0.0000 0.0000 0.0000 0.0000 0.0000 0.0000 0.0000 0.0000 0.0000 0.0000 0.0000 0.0000 0.0000 0.0000 0.0000 0.0000 0.0000 0.0000 -31.4784 36.8525 50.2306 -27.251 -62.1143 4.24057 39.3059 -1.34401 8.49185 0.0000 0.0000 0.0000 64.244 9.63432 34.4952 -32.1025 47.9743 -92.1134 51.3294 -16.179 -8.35239 
0.0000 0.0000 0.0000 0.0000 0.0000 0.0000 0.0000 0.0000 0.0000 4.7029 -4.26016 -33.1571 -5.64265 11.6571 31.4496 1.36189 3.37781 -8.28565 0.0000 0.0000 0.0000 0.0000 0.0000 0.0000 7.99815 16.402 -1.88485 -2.15159 3.27066 14.9845 7.00832 -11.837 -9.6289 0.0000 0.0000 0.0000 0.0000 0.0000 0.0000 0.0000 0.0000 0.0000 0.0000 0.0000 0.0000 0.0000 0.0000 0.0000 0.0000 0.0000 0.0000 0.0000 0.0000 0.0000 0.0000 0.0000 0.0000 0.0000 0.0000 0.0000 -30.9733 38.4867 50.442 -27.1378 -62.341 4.08357 39.4357 -1.45321 8.84214 0.0000 0.0000 0.0000 64.6043 10.8228 34.5252 -32.6999 47.025 -93.2045 51.6332 -15.1937 -7.74353 
